<svg xmlns="http://www.w3.org/2000/svg" viewBox="0 0 600 105">
  <defs>
    <linearGradient gradientUnits="userSpaceOnUse" x1="87.868" y1="88.578" x2="512.132" y2="15.198">
      <stop offset="0" stop-color="#EF5867"/>
      <stop offset="1" stop-color="#5031A8"/>
    </linearGradient>
    <linearGradient gradientUnits="userSpaceOnUse" x1="87.868" y1="88.578" x2="512.132" y2="15.198">
      <stop offset="0" stop-color="#aa2d90"/>
      <stop offset="1" stop-color="#EF5867"/>
    </linearGradient>
    <linearGradient gradientUnits="userSpaceOnUse" x1="87.868" y1="88.578" x2="512.132" y2="15.198">
      <stop offset="0" stop-color="#aa2d90"/>
      <stop offset="1" stop-color="#EF5867"/>
    </linearGradient>
    <linearGradient gradientUnits="userSpaceOnUse" x1="87.868" y1="88.578" x2="512.132" y2="15.198">
      <stop offset="0" stop-color="#21a8c9"/>
      <stop offset="1" stop-color="#55cbd7"/>
    </linearGradient>
  </defs>
  <path d="M47.286 13.215v83.746q0 2.866-1.91 4.776-1.911 1.911-4.617 1.911-2.866 0-4.777-1.911-1.91-1.91-1.91-4.776V13.215H6.687q-2.707 0-4.697-1.911Q0 9.394 0 6.687q0-2.866 1.99-4.776Q3.98 0 6.687 0H74.83q2.707 0 4.697 1.911 1.99 1.91 1.99 4.776 0 2.707-1.99 4.617-1.99 1.911-4.697 1.911zm152.311 87.089q2.07 3.344 5.891 3.344 2.707 0 4.697-1.911 1.99-1.91 1.99-4.617 0-1.274-.478-2.707-.318-.318-46.172-90.91Q163.933 0 160.112 0q-3.98 0-5.572 3.662l-46.013 90.751q-.637 1.274-.637 2.707 0 2.707 1.99 4.617 1.991 1.911 4.697 1.911H158.361q2.706 0 4.617-1.911 1.911-1.91 1.911-4.776 0-2.707-1.911-4.617-1.911-1.911-4.617-1.911h-32.957l34.708-68.302zM267.745 0q-2.707 0-4.697 1.911-1.99 1.91-1.99 4.776v90.274q0 2.866 1.99 4.776 1.99 1.911 4.697 1.911 2.706 0 4.697-1.911 1.99-1.91 1.99-4.776V6.687q0-2.866-1.99-4.776Q270.451 0 267.745 0zm131.396.019q-2.751-.201-4.881 1.717l-57.11 51.392V6.797q0-2.866-1.99-4.777-1.991-1.91-4.697-1.91-2.707 0-4.697 1.91-1.99 1.911-1.99 4.777v90.274q0 2.865 1.99 4.776 1.99 1.911 4.697 1.911 2.706 0 4.697-1.911 1.99-1.911 1.99-4.777V71.155l13.591-12.238 43.248 42.93q.318.637.955.796 1.911 1.274 4.299 1.115 2.388-.16 4.139-1.911 1.911-1.751 1.991-4.458.079-2.707-1.672-4.617l-.478-.478-42.51-42.351 42.496-38.268q2.13-1.918 2.218-4.675.088-2.758-1.723-4.769Q401.893.22 399.141.019zM593.313 0q-2.707 0-4.697 1.911-1.99 1.91-1.99 4.776v90.274q0 2.866 1.99 4.776 1.99 1.911 4.697 1.911t4.697-1.911q1.99-1.91 1.99-4.776V6.687q0-2.866-1.99-4.776Q596.02 0 593.313 0zm-68.164 100.304q2.069 3.344 5.89 3.344 2.707 0 4.697-1.911 1.99-1.91 1.99-4.617 0-1.274-.477-2.707-.319-.318-46.172-90.91Q489.485 0 485.664 0q-3.981 0-5.573 3.662l-46.012 90.751q-.637 1.274-.637 2.707 0 2.707 1.99 4.617 1.99 1.911 4.697 1.911h43.783q2.707 0 4.618-1.911 1.91-1.91 1.91-4.776 0-2.707-1.91-4.617-1.911-1.911-4.618-1.911h-32.957l34.709-68.302z"/>
</svg>