<?xml version="1.0" standalone="no"?>
<!DOCTYPE svg PUBLIC "-//W3C//DTD SVG 20010904//EN"
 "http://www.w3.org/TR/2001/REC-SVG-20010904/DTD/svg10.dtd">
<svg version="1.0" xmlns="http://www.w3.org/2000/svg"
 width="480.000000pt" height="480.000000pt" viewBox="0 0 480.000000 480.000000"
 preserveAspectRatio="xMidYMid meet">
<metadata>
Created by potrace 1.11, written by Peter Selinger 2001-2013
</metadata>
<g transform="translate(0.000000,480.000000) scale(0.100000,-0.100000)"
fill="#000000" stroke="none">
<path d="M798 4612 l-58 -3 0 -179 0 -179 53 -4 52 -3 -52 -2 -53 -2 0 -179 0
-180 48 -4 47 -3 -47 -2 -48 -2 0 -180 0 -180 180 0 180 0 0 179 c0 134 -3
181 -12 184 -10 4 -10 6 0 6 9 1 12 44 12 180 0 163 -2 180 -17 184 -17 4 -17
5 0 6 15 1 17 17 17 181 l0 180 -27 0 c-16 1 -71 2 -123 3 -52 1 -121 1 -152
-1z m110 -369 c-10 -2 -28 -2 -40 0 -13 2 -5 4 17 4 22 1 32 -1 23 -4z m119 0
c-20 -2 -52 -2 -70 0 -17 2 0 4 38 4 39 0 53 -2 32 -4z m-94 -370 c-13 -2 -33
-2 -45 0 -13 2 -3 4 22 4 25 0 35 -2 23 -4z m120 0 c-13 -2 -33 -2 -45 0 -13
2 -3 4 22 4 25 0 35 -2 23 -4z"/>
<path d="M1153 4612 l-43 -3 0 -179 c0 -177 0 -179 23 -183 l22 -4 -22 -2
c-23 -1 -23 -1 -23 -180 l0 -180 43 -4 42 -4 -42 -1 -43 -2 0 -180 0 -180 180
0 180 0 0 364 0 365 -37 4 -38 4 38 1 37 2 0 180 0 180 -27 1 c-103 3 -255 4
-290 1z m140 -369 c-23 -2 -64 -2 -90 0 -26 2 -7 3 42 3 50 0 71 -1 48 -3z
m90 0 c-7 -2 -21 -2 -30 0 -10 3 -4 5 12 5 17 0 24 -2 18 -5z m-90 -370 c-13
-2 -33 -2 -45 0 -13 2 -3 4 22 4 25 0 35 -2 23 -4z m120 0 c-13 -2 -33 -2 -45
0 -13 2 -3 4 22 4 25 0 35 -2 23 -4z"/>
<path d="M1538 4612 l-58 -3 0 -364 0 -364 38 -4 37 -4 -37 -1 -38 -2 0 -180
0 -180 180 0 180 0 0 179 0 180 -27 4 -28 4 28 2 27 1 0 179 c0 134 -3 181
-12 184 -10 4 -10 6 0 6 9 1 12 44 12 181 0 137 -3 180 -12 181 -46 3 -243 3
-290 1z m5 -369 c-7 -2 -21 -2 -30 0 -10 3 -4 5 12 5 17 0 24 -2 18 -5z m90 0
c-13 -2 -35 -2 -50 0 -16 2 -5 4 22 4 28 0 40 -2 28 -4z m70 0 c-7 -2 -21 -2
-30 0 -10 3 -4 5 12 5 17 0 24 -2 18 -5z m90 0 c-13 -2 -35 -2 -50 0 -16 2 -5
4 22 4 28 0 40 -2 28 -4z m-175 -370 c-10 -2 -28 -2 -40 0 -13 2 -5 4 17 4 22
1 32 -1 23 -4z m115 0 c-13 -2 -33 -2 -45 0 -13 2 -3 4 22 4 25 0 35 -2 23 -4z"/>
<path d="M3038 4612 l-78 -3 0 -179 0 -179 28 -4 27 -4 -27 -2 -28 -1 0 -179
c0 -178 0 -180 23 -184 l22 -4 -22 -2 c-23 -1 -23 -1 -23 -181 l0 -180 180 0
180 0 0 179 0 180 -27 4 -28 4 28 2 27 1 0 179 c0 163 -2 180 -17 184 -17 4
-17 5 0 6 15 1 17 17 17 181 0 164 -2 180 -17 181 -58 3 -199 4 -265 1z m25
-369 c-7 -2 -21 -2 -30 0 -10 3 -4 5 12 5 17 0 24 -2 18 -5z m150 0 c-23 -2
-64 -2 -90 0 -26 2 -7 3 42 3 50 0 71 -1 48 -3z m-145 -370 c-10 -2 -28 -2
-40 0 -13 2 -5 4 17 4 22 1 32 -1 23 -4z m80 0 c-10 -2 -28 -2 -40 0 -13 2 -5
4 17 4 22 1 32 -1 23 -4z m70 0 c-10 -2 -26 -2 -35 0 -10 3 -2 5 17 5 19 0 27
-2 18 -5z"/>
<path d="M3423 4612 l-93 -3 0 -179 0 -179 43 -4 42 -4 -42 -1 -43 -2 0 -179
0 -180 28 -4 27 -4 -27 -2 -28 -1 0 -180 0 -180 180 0 180 0 0 364 0 365 -28
4 -27 4 28 2 27 1 0 180 c0 180 0 180 -22 181 -13 0 -52 1 -88 2 -36 1 -107 1
-157 -1z m40 -369 c-7 -2 -21 -2 -30 0 -10 3 -4 5 12 5 17 0 24 -2 18 -5z m90
0 c-13 -2 -35 -2 -50 0 -16 2 -5 4 22 4 28 0 40 -2 28 -4z m70 0 c-7 -2 -21
-2 -30 0 -10 3 -4 5 12 5 17 0 24 -2 18 -5z m-170 -370 c-13 -2 -33 -2 -45 0
-13 2 -3 4 22 4 25 0 35 -2 23 -4z m85 0 c-10 -2 -28 -2 -40 0 -13 2 -5 4 17
4 22 1 32 -1 23 -4z m115 0 c-13 -2 -33 -2 -45 0 -13 2 -3 4 22 4 25 0 35 -2
23 -4z"/>
<path d="M3717 4612 c-15 -3 -17 -24 -17 -183 l0 -179 180 0 180 0 0 180 0
180 -67 0 c-38 1 -111 2 -164 3 -53 1 -103 1 -112 -1z"/>
<path d="M387 4242 c-15 -3 -17 -23 -17 -182 l0 -179 33 -4 32 -4 -32 -1 -33
-2 0 -180 0 -180 180 0 180 0 0 365 0 365 -23 1 c-73 3 -306 3 -320 1z m146
-369 c-13 -2 -33 -2 -45 0 -13 2 -3 4 22 4 25 0 35 -2 23 -4z m150 0 c-18 -2
-48 -2 -65 0 -18 2 -4 4 32 4 36 0 50 -2 33 -4z"/>
<path d="M1867 4242 c-15 -3 -17 -23 -17 -182 l0 -179 28 -4 27 -4 -27 -2 -28
-1 0 -180 0 -180 180 0 180 0 -2 366 -3 367 -161 1 c-88 1 -168 0 -177 -2z
m86 -369 c-7 -2 -21 -2 -30 0 -10 3 -4 5 12 5 17 0 24 -2 18 -5z m75 0 c-10
-2 -28 -2 -40 0 -13 2 -5 4 17 4 22 1 32 -1 23 -4z m80 0 c-10 -2 -28 -2 -40
0 -13 2 -5 4 17 4 22 1 32 -1 23 -4z m80 0 c-10 -2 -28 -2 -40 0 -13 2 -5 4
17 4 22 1 32 -1 23 -4z"/>
<path d="M2594 4241 c-2 -2 -4 -84 -4 -182 l0 -178 43 -4 42 -4 -42 -1 -43 -2
0 -180 0 -180 180 0 180 0 0 179 c0 134 -3 181 -12 184 -10 4 -10 6 0 6 9 1
12 44 12 181 0 137 -3 180 -12 181 -56 3 -341 3 -344 0z m179 -368 c-13 -2
-33 -2 -45 0 -13 2 -3 4 22 4 25 0 35 -2 23 -4z m130 0 c-13 -2 -35 -2 -50 0
-16 2 -5 4 22 4 28 0 40 -2 28 -4z"/>
<path d="M4093 4242 c-23 -3 -23 -4 -23 -182 l0 -179 43 -4 42 -4 -42 -1 -43
-2 0 -180 0 -180 180 0 180 0 0 365 c0 285 -3 365 -12 366 -53 2 -308 3 -325
1z m160 -369 c-13 -2 -33 -2 -45 0 -13 2 -3 4 22 4 25 0 35 -2 23 -4z m120 0
c-13 -2 -33 -2 -45 0 -13 2 -3 4 22 4 25 0 35 -2 23 -4z"/>
<path d="M3847 4157 c-36 -17 -45 -25 -38 -36 8 -12 13 -12 35 3 l26 16 0 -79
c0 -79 0 -80 -27 -83 -14 -2 -28 -9 -31 -15 -3 -10 16 -13 72 -13 62 0 74 3
70 14 -3 8 -15 16 -27 18 -21 3 -22 8 -22 95 0 50 -2 94 -5 97 -3 3 -27 -5
-53 -17z"/>
<path d="M38 3872 l-38 -3 0 -180 0 -179 180 0 180 0 -2 181 -3 182 -140 1
c-77 1 -157 0 -177 -2z"/>
<path d="M2268 3872 l-48 -3 0 -180 0 -179 180 0 180 0 0 180 c0 99 -3 180 -7
181 -40 2 -269 3 -305 1z"/>
<path d="M3748 3872 l-48 -3 0 -180 0 -179 180 0 180 0 0 180 c0 99 -3 180 -7
181 -40 2 -269 3 -305 1z"/>
<path d="M4498 3872 l-58 -3 0 -179 0 -180 180 0 180 0 0 183 0 182 -123 0
c-67 0 -148 -1 -179 -3z"/>
<path d="M0 3320 l0 -180 180 0 180 0 0 180 0 180 -180 0 -180 0 0 -180z"/>
<path d="M370 3320 l0 -180 180 0 180 0 0 180 0 180 -180 0 -180 0 0 -180z"/>
<path d="M1110 3320 l0 -180 180 0 180 0 0 180 0 180 -180 0 -180 0 0 -180z"/>
<path d="M1480 3320 l0 -180 180 0 180 0 0 180 0 180 -180 0 -180 0 0 -180z"/>
<path d="M1850 3320 l0 -180 180 0 180 0 0 180 0 180 -180 0 -180 0 0 -180z"/>
<path d="M2220 3320 l0 -180 180 0 180 0 0 180 0 180 -180 0 -180 0 0 -180z"/>
<path d="M2590 3320 l0 -180 180 0 180 0 0 180 0 180 -180 0 -180 0 0 -180z"/>
<path d="M2960 3320 l0 -180 180 0 180 0 0 180 0 180 -180 0 -180 0 0 -180z"/>
<path d="M3330 3320 l0 -180 180 0 180 0 0 180 0 180 -180 0 -180 0 0 -180z"/>
<path d="M3700 3320 l0 -180 180 0 180 0 0 180 0 180 -180 0 -180 0 0 -180z"/>
<path d="M4070 3320 l0 -180 180 0 180 0 0 180 0 180 -180 0 -180 0 0 -180z"/>
<path d="M4440 3320 l0 -180 180 0 180 0 0 180 0 180 -180 0 -180 0 0 -180z"/>
<path d="M893 3429 c-33 -12 -54 -51 -55 -103 -1 -83 36 -132 92 -122 14 2 28
5 32 5 13 2 36 54 38 86 4 61 -1 85 -22 110 -26 29 -53 37 -85 24z m48 -29
c19 -10 27 -40 11 -40 -5 0 -17 -8 -28 -17 -53 -48 -54 -48 -54 -11 0 21 8 43
20 56 24 25 25 25 51 12z m29 -98 c0 -57 -51 -92 -81 -56 -12 14 -8 21 26 50
49 41 55 42 55 6z"/>
<path d="M757 3132 c-15 -3 -17 -36 -17 -367 l0 -364 23 -4 22 -4 -22 -2 c-23
-1 -23 -1 -23 -181 l0 -180 180 0 180 0 0 179 c0 178 0 180 -22 184 l-23 4 23
2 c22 1 22 1 22 180 l0 180 -52 4 -53 3 53 2 52 2 0 180 0 180 -37 0 c-21 1
-95 2 -164 3 -69 1 -133 1 -142 -1z m46 -369 c-7 -2 -21 -2 -30 0 -10 3 -4 5
12 5 17 0 24 -2 18 -5z m105 0 c-10 -2 -28 -2 -40 0 -13 2 -5 4 17 4 22 1 32
-1 23 -4z m70 0 c-10 -2 -26 -2 -35 0 -10 3 -2 5 17 5 19 0 27 -2 18 -5z m-35
-370 c-29 -2 -77 -2 -105 0 -29 2 -6 3 52 3 58 0 81 -1 53 -3z m100 0 c-7 -2
-21 -2 -30 0 -10 3 -4 5 12 5 17 0 24 -2 18 -5z"/>
<path d="M0 2951 c0 -163 2 -180 17 -184 17 -4 17 -5 1 -6 -16 -1 -18 -17 -18
-181 l0 -180 180 0 180 0 0 179 c0 134 -3 181 -12 184 -10 4 -10 6 0 6 9 1 12
44 12 181 l0 180 -180 0 -180 0 0 -179z m113 -188 c-13 -2 -35 -2 -50 0 -16 2
-5 4 22 4 28 0 40 -2 28 -4z m135 0 c-16 -2 -40 -2 -55 0 -16 2 -3 4 27 4 30
0 43 -2 28 -4z m75 0 c-7 -2 -21 -2 -30 0 -10 3 -4 5 12 5 17 0 24 -2 18 -5z"/>
<path d="M370 2951 c0 -178 0 -180 23 -184 l22 -4 -22 -2 c-23 -1 -23 -1 -23
-181 l0 -179 73 -4 72 -3 -72 -2 -73 -2 0 -180 0 -180 180 0 180 0 0 364 0
365 -42 4 -43 4 43 1 42 2 0 180 0 180 -180 0 -180 0 0 -179z m128 -188 c-10
-2 -26 -2 -35 0 -10 3 -2 5 17 5 19 0 27 -2 18 -5z m95 0 c-13 -2 -35 -2 -50
0 -16 2 -5 4 22 4 28 0 40 -2 28 -4z m-30 -370 c-7 -2 -21 -2 -30 0 -10 3 -4
5 12 5 17 0 24 -2 18 -5z m60 0 c-7 -2 -21 -2 -30 0 -10 3 -4 5 12 5 17 0 24
-2 18 -5z m90 0 c-7 -2 -21 -2 -30 0 -10 3 -4 5 12 5 17 0 24 -2 18 -5z"/>
<path d="M1110 2766 c0 -338 2 -365 18 -369 16 -4 16 -5 0 -6 -16 -1 -18 -17
-18 -181 l0 -180 180 0 180 0 0 180 0 179 -102 4 -103 3 103 2 102 2 0 179 0
180 -52 4 -53 3 53 2 52 2 0 180 0 180 -180 0 -180 0 0 -364z m98 -3 c-16 -2
-40 -2 -55 0 -16 2 -3 4 27 4 30 0 43 -2 28 -4z m105 0 c-13 -2 -35 -2 -50 0
-16 2 -5 4 22 4 28 0 40 -2 28 -4z m-120 -370 c-7 -2 -21 -2 -30 0 -10 3 -4 5
12 5 17 0 24 -2 18 -5z m60 0 c-7 -2 -21 -2 -30 0 -10 3 -4 5 12 5 17 0 24 -2
18 -5z"/>
<path d="M1480 2765 l0 -365 180 0 180 0 0 179 c0 134 -3 181 -12 184 -10 4
-10 6 0 6 9 1 12 44 12 181 l0 180 -180 0 -180 0 0 -365z m143 -2 c-18 -2 -48
-2 -65 0 -18 2 -4 4 32 4 36 0 50 -2 33 -4z m160 0 c-18 -2 -48 -2 -65 0 -18
2 -4 4 32 4 36 0 50 -2 33 -4z"/>
<path d="M1850 2951 l0 -180 53 -4 52 -3 -52 -2 -53 -2 0 -179 0 -180 53 -4
52 -3 -52 -2 -53 -2 0 -180 0 -180 180 0 180 0 0 179 c0 178 0 180 -22 184
l-23 4 23 2 c22 1 22 1 22 180 0 134 -3 181 -12 184 -10 4 -10 6 0 6 9 1 12
44 12 181 l0 180 -180 0 -180 0 0 -179z m183 -188 c-13 -2 -35 -2 -50 0 -16 2
-5 4 22 4 28 0 40 -2 28 -4z m130 0 c-13 -2 -35 -2 -50 0 -16 2 -5 4 22 4 28
0 40 -2 28 -4z m-160 -370 c-7 -2 -21 -2 -30 0 -10 3 -4 5 12 5 17 0 24 -2 18
-5z m60 0 c-7 -2 -21 -2 -30 0 -10 3 -4 5 12 5 17 0 24 -2 18 -5z m90 0 c-7
-2 -21 -2 -30 0 -10 3 -4 5 12 5 17 0 24 -2 18 -5z"/>
<path d="M2590 2951 l0 -180 43 -4 42 -4 -42 -1 -43 -2 0 -179 c0 -134 3 -181
13 -184 10 -4 10 -6 0 -6 -10 -1 -13 -44 -13 -181 l0 -180 180 0 180 0 0 179
c0 163 -2 180 -17 184 -17 4 -17 5 0 6 15 1 17 17 17 180 0 163 -2 180 -17
184 -17 4 -17 5 0 6 15 1 17 17 17 181 l0 180 -180 0 -180 0 0 -179z m133
-188 c-7 -2 -21 -2 -30 0 -10 3 -4 5 12 5 17 0 24 -2 18 -5z m105 0 c-10 -2
-28 -2 -40 0 -13 2 -5 4 17 4 22 1 32 -1 23 -4z m70 0 c-10 -2 -26 -2 -35 0
-10 3 -2 5 17 5 19 0 27 -2 18 -5z m-235 -370 c-7 -2 -21 -2 -30 0 -10 3 -4 5
12 5 17 0 24 -2 18 -5z m195 0 c-32 -2 -86 -2 -120 0 -35 2 -9 3 57 3 66 0 94
-1 63 -3z"/>
<path d="M2960 2951 l0 -180 28 -4 27 -4 -27 -2 -28 -1 0 -180 0 -180 180 0
180 0 0 179 c0 163 -2 180 -17 184 -17 4 -17 5 0 6 15 1 17 17 17 181 l0 180
-180 0 -180 0 0 -179z m168 -188 c-16 -2 -40 -2 -55 0 -16 2 -3 4 27 4 30 0
43 -2 28 -4z m105 0 c-13 -2 -35 -2 -50 0 -16 2 -5 4 22 4 28 0 40 -2 28 -4z"/>
<path d="M3330 2951 l0 -180 43 -4 42 -4 -42 -1 -43 -2 0 -179 0 -180 33 -4
32 -4 -32 -1 -33 -2 0 -180 0 -180 180 0 180 0 0 179 c0 134 -3 181 -12 184
-10 4 -10 6 0 6 9 1 12 44 12 180 l0 180 -42 4 -43 4 43 1 42 2 0 180 0 180
-180 0 -180 0 0 -179z m213 -188 c-18 -2 -48 -2 -65 0 -18 2 -4 4 32 4 36 0
50 -2 33 -4z m-100 -370 c-7 -2 -21 -2 -30 0 -10 3 -4 5 12 5 17 0 24 -2 18
-5z m60 0 c-7 -2 -21 -2 -30 0 -10 3 -4 5 12 5 17 0 24 -2 18 -5z m90 0 c-7
-2 -21 -2 -30 0 -10 3 -4 5 12 5 17 0 24 -2 18 -5z m60 0 c-7 -2 -21 -2 -30 0
-10 3 -4 5 12 5 17 0 24 -2 18 -5z"/>
<path d="M3700 2951 c0 -163 2 -180 18 -184 16 -4 16 -5 0 -6 -16 -1 -18 -17
-18 -181 l0 -179 88 -4 87 -3 -87 -2 -88 -2 0 -180 0 -180 180 0 180 0 0 179
c0 163 -2 180 -17 184 -17 4 -17 5 0 6 15 1 17 17 17 180 l0 180 -27 4 -28 4
28 2 27 1 0 180 0 180 -180 0 -180 0 0 -179z m148 -188 c-16 -2 -40 -2 -55 0
-16 2 -3 4 27 4 30 0 43 -2 28 -4z m105 0 c-13 -2 -35 -2 -50 0 -16 2 -5 4 22
4 28 0 40 -2 28 -4z m-30 -370 c-7 -2 -21 -2 -30 0 -10 3 -4 5 12 5 17 0 24
-2 18 -5z m60 0 c-7 -2 -21 -2 -30 0 -10 3 -4 5 12 5 17 0 24 -2 18 -5z"/>
<path d="M4440 2765 l0 -365 180 0 180 0 0 179 c0 163 -2 180 -17 184 -17 4
-17 5 0 6 15 1 17 17 17 181 l0 180 -180 0 -180 0 0 -365z m128 -2 c-16 -2
-40 -2 -55 0 -16 2 -3 4 27 4 30 0 43 -2 28 -4z m75 0 c-7 -2 -21 -2 -30 0
-10 3 -4 5 12 5 17 0 24 -2 18 -5z m105 0 c-10 -2 -28 -2 -40 0 -13 2 -5 4 17
4 22 1 32 -1 23 -4z"/>
<path d="M2372 3050 c-23 -11 -42 -26 -42 -35 0 -17 16 -20 25 -5 3 6 13 10
21 10 11 0 14 -17 14 -79 0 -77 0 -78 -24 -74 -22 5 -45 -12 -33 -23 4 -5 90
-7 134 -5 20 1 3 31 -18 31 -22 0 -21 -2 -23 107 0 45 -3 84 -6 87 -3 2 -24
-4 -48 -14z"/>
<path d="M4219 3063 c-54 -14 -67 -171 -18 -212 31 -27 75 -21 107 15 17 19
22 37 22 79 0 96 -39 138 -111 118z m62 -39 c12 -14 8 -21 -26 -50 -22 -19
-43 -34 -47 -34 -17 0 -7 61 12 80 24 24 43 25 61 4z m14 -110 c-7 -42 -45
-65 -70 -44 -23 19 -18 32 28 66 46 34 52 31 42 -22z"/>
<path d="M2230 2762 c-6 -2 -10 -72 -10 -182 l0 -179 108 -4 107 -3 -107 -2
-108 -2 0 -180 0 -180 180 0 180 0 0 179 c0 134 -3 181 -12 184 -10 4 -10 6 0
6 9 1 12 44 12 181 0 180 0 180 -22 181 -98 3 -320 3 -328 1z m253 -369 c-7
-2 -21 -2 -30 0 -10 3 -4 5 12 5 17 0 24 -2 18 -5z m60 0 c-7 -2 -21 -2 -30 0
-10 3 -4 5 12 5 17 0 24 -2 18 -5z"/>
<path d="M4074 2761 c-2 -2 -4 -84 -4 -182 0 -176 0 -178 23 -182 l22 -4 -22
-2 c-23 -1 -23 -1 -23 -181 l0 -180 180 0 180 0 0 365 0 365 -28 1 c-111 3
-324 3 -328 0z m224 -368 c-32 -2 -86 -2 -120 0 -35 2 -9 3 57 3 66 0 94 -1
63 -3z m105 0 c-7 -2 -21 -2 -30 0 -10 3 -4 5 12 5 17 0 24 -2 18 -5z"/>
<path d="M3107 2319 c-37 -20 -55 -58 -19 -44 9 4 23 9 30 12 9 4 12 -14 12
-71 0 -72 -1 -76 -22 -77 -13 -1 -26 -1 -30 0 -5 0 -8 -6 -8 -14 0 -8 8 -15
18 -16 62 -2 112 0 121 6 17 10 1 27 -19 22 -25 -6 -27 2 -25 105 0 54 -3 89
-10 92 -6 2 -27 -5 -48 -15z"/>
<path d="M1623 2318 c-69 -34 -55 -207 18 -223 56 -13 101 36 101 109 0 52 -9
84 -28 103 -18 19 -65 24 -91 11z m68 -34 c12 -14 8 -21 -26 -50 -22 -19 -43
-34 -47 -34 -17 0 -7 61 12 80 24 24 43 25 61 4z m15 -109 c-9 -45 -29 -61
-61 -47 -35 16 -31 32 18 68 46 34 52 31 43 -21z"/>
<path d="M1497 2022 c-15 -3 -17 -23 -17 -183 l0 -179 180 0 180 0 -2 181 -3
182 -161 1 c-88 1 -168 0 -177 -2z"/>
<path d="M2983 2022 c-23 -3 -23 -4 -23 -183 l0 -179 180 0 180 0 0 183 0 182
-157 0 c-87 0 -168 -1 -180 -3z"/>
<path d="M740 1840 l0 -180 180 0 180 0 0 180 0 180 -180 0 -180 0 0 -180z"/>
<path d="M1110 1840 l0 -180 180 0 180 0 0 180 0 180 -180 0 -180 0 0 -180z"/>
<path d="M1850 1840 l0 -180 180 0 180 0 0 180 0 180 -180 0 -180 0 0 -180z"/>
<path d="M2220 1840 l0 -180 180 0 180 0 0 180 0 180 -180 0 -180 0 0 -180z"/>
<path d="M2590 1840 l0 -180 180 0 180 0 0 180 0 180 -180 0 -180 0 0 -180z"/>
<path d="M3330 1840 l0 -180 180 0 180 0 0 180 0 180 -180 0 -180 0 0 -180z"/>
<path d="M3700 1840 l0 -180 180 0 180 0 0 180 0 180 -180 0 -180 0 0 -180z"/>
<path d="M1110 1470 l0 -180 180 0 180 0 0 180 0 180 -180 0 -180 0 0 -180z"/>
<path d="M1480 1285 l0 -365 180 0 180 0 0 180 0 179 -142 4 -143 3 143 2 142
2 0 180 0 180 -180 0 -180 0 0 -365z m63 -2 c-7 -2 -21 -2 -30 0 -10 3 -4 5
12 5 17 0 24 -2 18 -5z"/>
<path d="M1850 1471 l0 -180 43 -4 42 -4 -42 -1 -43 -2 0 -179 0 -180 33 -4
32 -4 -32 -1 -33 -2 0 -180 0 -180 180 0 180 0 0 179 c0 134 -3 181 -12 184
-10 4 -10 6 0 6 9 1 12 44 12 180 0 163 -2 180 -17 184 -17 4 -17 5 0 6 15 1
17 17 17 181 l0 180 -180 0 -180 0 0 -179z m133 -188 c-7 -2 -21 -2 -30 0 -10
3 -4 5 12 5 17 0 24 -2 18 -5z m60 0 c-7 -2 -21 -2 -30 0 -10 3 -4 5 12 5 17
0 24 -2 18 -5z m60 0 c-7 -2 -21 -2 -30 0 -10 3 -4 5 12 5 17 0 24 -2 18 -5z
m60 0 c-7 -2 -21 -2 -30 0 -10 3 -4 5 12 5 17 0 24 -2 18 -5z m-140 -370 c-13
-2 -35 -2 -50 0 -16 2 -5 4 22 4 28 0 40 -2 28 -4z m105 0 c-16 -2 -40 -2 -55
0 -16 2 -3 4 27 4 30 0 43 -2 28 -4z"/>
<path d="M2220 1470 l0 -180 180 0 180 0 0 180 0 180 -180 0 -180 0 0 -180z"/>
<path d="M2590 1471 c0 -178 0 -180 23 -184 l22 -4 -22 -2 c-23 -1 -23 -1 -23
-181 l0 -179 63 -4 62 -3 -62 -2 -63 -2 0 -180 0 -180 180 0 180 0 0 179 0
180 -52 4 -53 3 53 2 52 2 0 179 c0 134 -3 181 -12 184 -10 4 -10 6 0 6 9 1
12 44 12 181 l0 180 -180 0 -180 0 0 -179z m93 -188 c-7 -2 -21 -2 -30 0 -10
3 -4 5 12 5 17 0 24 -2 18 -5z m90 0 c-7 -2 -21 -2 -30 0 -10 3 -4 5 12 5 17
0 24 -2 18 -5z m60 0 c-7 -2 -21 -2 -30 0 -10 3 -4 5 12 5 17 0 24 -2 18 -5z
m50 0 c-7 -2 -19 -2 -25 0 -7 3 -2 5 12 5 14 0 19 -2 13 -5z m-60 -370 c-13
-2 -35 -2 -50 0 -16 2 -5 4 22 4 28 0 40 -2 28 -4z"/>
<path d="M2960 1471 l0 -180 28 -4 27 -4 -27 -2 -28 -1 0 -180 0 -180 180 0
180 0 0 180 0 179 -77 4 -78 3 78 2 77 2 0 180 0 180 -180 0 -180 0 0 -179z
m133 -188 c-7 -2 -21 -2 -30 0 -10 3 -4 5 12 5 17 0 24 -2 18 -5z m60 0 c-7
-2 -21 -2 -30 0 -10 3 -4 5 12 5 17 0 24 -2 18 -5z"/>
<path d="M3330 1470 l0 -180 180 0 180 0 0 180 0 180 -180 0 -180 0 0 -180z"/>
<path d="M2363 1197 c-33 -17 -40 -25 -33 -37 7 -12 12 -12 22 -2 29 29 38 14
38 -63 0 -71 -1 -75 -22 -76 -13 -1 -26 -1 -30 0 -16 2 -7 -28 8 -31 37 -7
135 4 131 15 -2 7 -10 13 -18 13 -8 1 -19 2 -24 3 -6 1 -10 34 -10 84 1 85 -3
117 -14 117 -3 -1 -25 -11 -48 -23z"/>
<path d="M2253 912 l-33 -3 0 -180 0 -179 180 0 180 0 0 180 c0 180 0 180 -22
181 -123 3 -279 3 -305 1z"/>
<path d="M2220 360 l0 -180 180 0 180 0 0 180 0 180 -180 0 -180 0 0 -180z"/>
</g>
</svg>
